<?xml version="1.0" standalone="no"?>
<!DOCTYPE svg PUBLIC "-//W3C//DTD SVG 20010904//EN"
 "http://www.w3.org/TR/2001/REC-SVG-20010904/DTD/svg10.dtd">
<svg version="1.0" xmlns="http://www.w3.org/2000/svg"
 width="512.000000pt" height="512.000000pt" viewBox="0 0 512.000000 512.000000"
 preserveAspectRatio="xMidYMid meet">

<g transform="translate(0.000000,512.000000) scale(0.100000,-0.100000)"
fill="#000000" stroke="none">
<path d="M2400 4990 c-818 -54 -1564 -531 -1955 -1250 -577 -1064 -290 -2376
679 -3098 325 -243 701 -396 1123 -458 146 -21 480 -22 628 -1 714 100 1335
491 1714 1077 75 115 175 311 226 439 41 105 99 301 110 371 l7 45 -37 -55
c-87 -129 -355 -407 -541 -562 -179 -148 -369 -274 -579 -385 -66 -34 -115
-63 -110 -63 6 0 12 -15 13 -33 2 -30 -1 -34 -59 -60 -90 -40 -281 -103 -400
-132 -278 -66 -613 -74 -894 -19 -68 13 -274 70 -283 79 -8 7 -9 45 -1 45 5 0
9 7 9 15 0 9 -55 41 -142 83 -155 75 -300 159 -377 221 -34 26 -64 41 -94 45
l-45 7 -8 87 c-17 207 52 442 159 541 22 20 24 27 15 47 -6 13 -15 24 -20 24
-4 0 -8 9 -8 20 0 11 -4 20 -10 20 -5 0 -10 9 -10 20 0 11 -5 20 -12 20 -6 0
-9 3 -5 6 3 4 -1 20 -9 36 -9 17 -17 37 -19 46 -2 10 -11 39 -20 65 -9 27 -17
57 -18 68 -1 10 -4 19 -7 19 -4 0 -9 36 -13 97 -1 21 -1 21 -31 -4 -90 -73
-202 -233 -260 -368 -37 -87 -87 -262 -101 -358 -4 -26 -11 -47 -15 -47 -15 0
-129 179 -180 281 -60 119 -113 269 -142 403 -19 87 -22 131 -22 316 0 184 3
229 22 313 54 242 155 462 301 652 99 130 272 294 418 398 67 47 191 109 206
103 7 -2 3 -5 -7 -5 -18 -1 -17 -3 4 -21 15 -13 18 -20 9 -20 -11 0 -11 -2 -1
-9 10 -6 4 -12 -20 -22 -46 -19 -151 -91 -228 -158 -316 -271 -503 -572 -591
-949 -16 -67 -22 -136 -26 -299 l-5 -213 40 0 c22 0 42 -4 44 -9 2 -6 24 -11
51 -12 26 -2 47 -6 47 -11 0 -13 37 -9 37 5 1 6 6 48 13 92 54 366 219 715
458 966 255 268 528 418 871 480 100 18 140 20 296 16 99 -4 193 -9 208 -13
32 -7 76 -69 104 -145 15 -41 21 -47 62 -59 25 -7 48 -16 51 -19 3 -3 23 -12
44 -20 22 -7 62 -27 89 -43 l50 -29 -64 69 c-46 50 -82 104 -128 193 -35 68
-81 149 -101 179 -97 143 -250 271 -391 326 l-67 26 0 281 0 280 167 -6 c483
-17 891 -162 1198 -425 121 -103 258 -287 336 -450 39 -81 42 -93 42 -172 0
-74 -4 -93 -30 -145 -62 -124 -218 -231 -392 -269 -144 -32 -331 -13 -443 44
-23 12 -44 20 -46 17 -2 -2 8 -10 23 -18 15 -8 46 -32 69 -54 23 -22 50 -47
60 -56 38 -34 106 -112 116 -135 6 -13 15 -24 19 -24 4 0 11 -9 14 -20 3 -11
12 -26 20 -33 20 -21 105 -194 98 -201 -4 -3 -2 -6 4 -6 6 0 14 -15 18 -32 4
-18 9 -39 11 -45 2 -7 5 -19 7 -25 2 -7 6 -22 10 -33 8 -25 17 -69 23 -116 5
-34 3 -38 -42 -64 -25 -15 -62 -37 -80 -50 -47 -32 -225 -108 -362 -156 -141
-48 -363 -105 -646 -165 -115 -24 -211 -46 -213 -48 -2 -2 3 -10 11 -19 8 -8
12 -17 9 -21 -4 -3 1 -6 11 -6 9 0 14 4 11 10 -3 5 0 7 9 4 29 -11 621 118
836 183 272 82 526 215 706 371 404 349 506 862 262 1324 -179 337 -604 650
-1061 782 -247 71 -557 104 -827 86z m-1527 -2587 c-7 -2 -21 -2 -30 0 -10 3
-4 5 12 5 17 0 24 -2 18 -5z"/>
</g>
</svg>
